<svg width="50" height="50" viewBox="0 0 50 50" fill="none" xmlns="http://www.w3.org/2000/svg">
<g clip-path="url(#clip0_7_1315)">
<path d="M-6.10352e-05 25C-6.10352e-05 38.8071 11.1928 50 24.9999 50C38.8071 50 49.9999 38.8071 49.9999 25C49.9999 11.1929 38.8071 0 24.9999 0C11.1928 0 -6.10352e-05 11.1929 -6.10352e-05 25Z" fill="#1BD741"/>
<path d="M8.99994 42.0085L11.4491 33.3099C9.87414 30.6343 9.04492 27.5901 9.04492 24.4628C9.04492 14.8338 16.8787 7 26.5077 7C36.1368 7 43.9705 14.8338 43.9705 24.4628C43.9705 34.0919 36.1368 41.9256 26.5077 41.9256C23.5074 41.9256 20.5695 41.1576 17.9705 39.6993L8.99994 42.0085ZM18.4291 36.5224L18.9636 36.8487C21.2296 38.2321 23.8384 38.9634 26.5077 38.9634C34.5034 38.9634 41.0082 32.4584 41.0082 24.4628C41.0082 16.4672 34.5034 9.96227 26.5077 9.96227C18.5121 9.96227 12.0072 16.4672 12.0072 24.4628C12.0072 27.2488 12.799 29.9542 14.2968 32.2866L14.6568 32.8472L13.2464 37.8565L18.4291 36.5224Z" fill="white"/>
<path d="M21.6022 16.3351L20.4691 16.2733C20.1132 16.2539 19.764 16.3728 19.495 16.6065C18.9457 17.0835 18.0673 18.0058 17.7975 19.2076C17.3952 20.9995 18.017 23.1938 19.6261 25.3881C21.2353 27.5824 24.2341 31.0932 29.5369 32.5927C31.2457 33.0759 32.5899 32.7501 33.6271 32.0867C34.4485 31.5613 35.0147 30.7179 35.2188 29.7645L35.3997 28.9195C35.4572 28.6509 35.3208 28.3784 35.0713 28.2634L31.2418 26.4982C30.9931 26.3836 30.6983 26.4561 30.5311 26.6727L29.0277 28.6217C28.9142 28.7689 28.7198 28.8273 28.5442 28.7656C27.5147 28.4038 24.0659 26.9594 22.1736 23.3143C22.0915 23.1562 22.1119 22.9643 22.2283 22.8295L23.6651 21.1673C23.8119 20.9976 23.849 20.7589 23.7608 20.5527L22.1101 16.6906C22.0222 16.485 21.8252 16.3472 21.6022 16.3351Z" fill="white"/>
</g>
<defs>
<clipPath id="clip0_7_1315">
<rect width="50" height="50" fill="white"/>
</clipPath>
</defs>
</svg>
